# xmcd
#
# Track frame offsets:
#	150
#	14623
#	30199
#	48328
#	65922
#	83290
#	96496
#	111499
#	126547
#	142744
#	158794
#
# Disc length: 2321 seconds
#
# Revision: 3
# Processed by: cddbd v1.5.2PL0 Copyright (c) Steve Scherf et al.
# Submitted via: EasyCDDAExtractor 15.3.0.1
#
DISCID=90090f0b
DTITLE=Fanny Lu - Dos
DYEAR=2008
DGENRE=Latin
TTITLE0=Corazon Perdido
TTITLE1=Tu No Eres Para Mi
TTITLE2=Te Va A Costar (La, La, La)
TTITLE3=Amor Sincero
TTITLE4=Un Minuto Mas (Featuring Noel Schajris)
TTITLE5=Celos
TTITLE6=Ya No Puedo Mas
TTITLE7=Mañana Es Otro Dia
TTITLE8=No Renuncio
TTITLE9=Lloro Por Ti
TTITLE10=Mi Rutina Para Amar
EXTD=
EXTT0=
EXTT1=
EXTT2=
EXTT3=
EXTT4=
EXTT5=
EXTT6=
EXTT7=
EXTT8=
EXTT9=
EXTT10=
PLAYORDER=
